PathFileType	4	(X/Y/Z)	C:/Users/opensim2020/Desktop/walking_exp_matlab/subject06_walking16_straight_04.trc	
DataRate	CameraRate	NumFrames	NumMarkers	Units	OrigDataRate	OrigDataStartFrame	OrigNumFrames	
100.00	100.00	6	51	mm	100.00	3921	352	
Frame#	Time	LFHD			RFHD			LBHD			RBHD			C7			T10			CLAV			STRN			RBAK			LSHO			LUPA			LELB			LFRM			LWRA			LWRB			LFIN			RSHO			RUPA			RELB			RFRM			RWRA			RWRB			RFIN			LASI			RASI			LPSI			RPSI			LTHI			LKNE			LTIB			LANK			LHEE			LTOE			RTHI			RKNE			RTIB			RANK			RHEE			RTOE			*39			*40			*41			*42			*43			*44			*45			*46			*47			*48			*49			*50			
		X1	Y1	Z1	X2	Y2	Z2	X3	Y3	Z3	X4	Y4	Z4	X5	Y5	Z5	X6	Y6	Z6	X7	Y7	Z7	X8	Y8	Z8	X9	Y9	Z9	X10	Y10	Z10	X11	Y11	Z11	X12	Y12	Z12	X13	Y13	Z13	X14	Y14	Z14	X15	Y15	Z15	X16	Y16	Z16	X17	Y17	Z17	X18	Y18	Z18	X19	Y19	Z19	X20	Y20	Z20	X21	Y21	Z21	X22	Y22	Z22	X23	Y23	Z23	X24	Y24	Z24	X25	Y25	Z25	X26	Y26	Z26	X27	Y27	Z27	X28	Y28	Z28	X29	Y29	Z29	X30	Y30	Z30	X31	Y31	Z31	X32	Y32	Z32	X33	Y33	Z33	X34	Y34	Z34	X35	Y35	Z35	X36	Y36	Z36	X37	Y37	Z37	X38	Y38	Z38	X39	Y39	Z39	X40	Y40	Z40	X41	Y41	Z41	X42	Y42	Z42	X43	Y43	Z43	X44	Y44	Z44	X45	Y45	Z45	X46	Y46	Z46	X47	Y47	Z47	X48	Y48	Z48	X49	Y49	Z49	X50	Y50	Z50	X51	Y51	Z51	

89	0.880	1516.50037	709.66028	1667.56055	1385.79639	715.90997	1653.52100	1524.95642	842.31555	1611.42444	1396.58801	846.75244	1602.77649	1468.34656	843.24945	1452.15466	1458.66760	869.30188	1122.27966	1465.31494	730.38000	1377.78369	1467.08887	688.00964	1202.74731	1384.31042	912.29999	1282.28174	1628.22119	785.62079	1407.87000	1698.77808	815.16821	1209.45520	1708.23279	838.23395	1099.36523	1726.83093	834.78656	948.26306	1678.18677	795.82794	827.09955	1722.38586	852.93427	830.40863	1716.24902	824.44757	743.32111	1305.59424	777.20276	1411.05310	1212.17700	810.51483	1214.61829	1195.64978	797.26666	1093.81628	1175.51501	768.41388	977.53369	1204.41760	690.16864	847.78351	1163.89465	743.81830	842.60590	1160.65039	696.04291	772.97913	1554.23584	674.64056	969.34216	1334.96741	695.04248	970.24084	1539.29456	836.64386	992.33704	1371.34009	844.66248	992.23743	1620.21252	718.03186	656.36920	1598.80017	704.09229	492.68054	1588.91992	701.18762	237.23880	1543.91272	675.05219	67.40388	1494.83276	710.20502	52.30247	1544.01819	528.44061	45.27723	1282.72144	770.09515	631.60052	1297.35254	775.46832	504.07745	1308.50537	948.65936	298.78430	1353.44934	1064.36426	153.44174	1400.95740	1107.37988	155.15422	1355.60156	964.17285	37.75132	1461.61157	813.44153	1703.08081																																	 
90	0.890	1518.17566	703.81976	1667.94519	1387.57996	710.09460	1654.01990	1526.73157	836.37891	1611.42798	1398.38379	840.89789	1602.92773	1470.05408	836.87366	1452.31726	1460.68018	862.57916	1122.43896	1467.04346	723.87573	1378.18726	1468.91980	681.06091	1203.16785	1386.29883	905.63342	1282.24011	1629.86743	779.06714	1408.42102	1700.92419	807.07880	1209.88428	1710.58606	829.04047	1099.56580	1729.48169	823.90082	948.80670	1680.36670	783.26965	827.93353	1724.87646	840.52289	830.69208	1718.49072	810.55023	743.77441	1307.35413	770.85767	1411.27820	1214.03284	804.69318	1214.93005	1197.42029	791.66412	1094.07483	1177.09192	763.40955	977.74103	1205.84998	685.70734	847.49707	1165.33838	739.39471	842.61426	1162.18115	692.14905	772.61096	1556.07825	668.06366	969.23804	1336.82385	688.50476	970.78137	1541.05688	830.10260	992.52325	1373.14099	838.23877	992.49823	1621.25659	712.56287	656.31421	1599.81531	700.18634	492.44742	1589.10010	699.31268	236.98708	1543.44873	674.25293	67.35617	1494.52136	709.61383	52.64047	1543.92371	527.76971	44.46364	1282.70056	760.58368	631.77826	1296.16687	764.06451	504.21701	1308.91101	939.35706	301.81973	1354.19385	1057.74658	158.77426	1402.55762	1099.33472	161.89337	1355.71838	962.51965	38.63727	1463.45825	807.83087	1703.26038																																	 
91	0.900	1519.91919	698.13068	1668.20447	1389.29260	704.46277	1654.36353	1528.48865	830.46313	1611.23633	1400.10059	835.00653	1602.84167	1471.75830	830.57953	1452.35510	1462.67847	855.98944	1122.46570	1468.69702	717.51166	1378.35620	1470.63428	674.45325	1203.34033	1388.34668	899.17810	1282.13086	1631.49866	772.54388	1408.75464	1703.10120	798.97748	1210.11584	1712.98999	819.82861	1099.58191	1731.89880	812.70972	948.88702	1682.85742	770.44165	828.66229	1726.97974	827.65088	830.33118	1720.84888	796.44867	744.09601	1309.06274	764.59601	1411.24792	1215.45605	798.53485	1215.08826	1199.09583	786.10419	1094.12390	1178.60645	758.32977	977.71967	1207.30469	681.36877	847.03796	1166.84229	734.81738	842.49780	1163.89490	688.04865	772.09052	1557.78076	661.67554	969.03918	1338.46106	682.29187	971.12891	1542.73596	823.67999	992.54559	1374.85400	832.02356	992.53998	1622.17664	707.05841	656.19031	1600.73645	696.18365	492.21838	1589.34570	696.91370	236.77290	1542.81311	673.02106	67.31606	1494.17004	708.97101	53.06559	1543.06580	526.70990	43.70764	1282.60583	751.15692	631.95807	1295.22192	752.33038	504.35007	1309.22192	929.63977	304.78503	1354.79834	1050.24023	164.11893	1404.00085	1090.99683	168.58041	1355.60449	960.19598	40.15724	1465.30750	802.24841	1703.22925																																	 
92	0.910	1521.52991	692.38782	1668.33398	1390.93372	698.74780	1654.59363	1530.17944	824.54425	1610.90625	1401.76624	829.15802	1602.57922	1473.39880	824.26605	1452.25134	1464.70398	849.57800	1122.34424	1470.28394	711.13715	1378.33972	1472.30225	667.98431	1203.35608	1390.38391	892.89410	1281.91150	1633.17859	766.00842	1408.93701	1705.22266	790.89661	1210.10901	1715.42383	810.63037	1099.41650	1734.42737	801.57831	948.86798	1685.17480	757.72430	829.30914	1729.42346	814.93402	830.09772	1723.27380	782.28101	744.36371	1310.71643	758.41125	1411.05383	1217.05920	792.71771	1214.96655	1200.67847	780.63568	1094.01758	1180.13293	753.21881	977.51251	1208.72693	676.56793	846.58344	1168.13843	730.41742	842.18011	1165.33228	683.69421	771.49310	1559.44092	655.31653	968.84143	1340.04138	676.33105	971.31012	1544.36279	817.40417	992.44623	1376.42969	826.06799	992.34692	1622.98169	701.64655	656.08344	1601.57202	692.02216	491.98529	1589.61780	694.07642	236.54485	1542.40771	672.23621	67.32111	1493.80090	708.35602	53.38973	1542.44482	525.86591	43.12604	1282.50818	741.77631	631.93616	1294.29333	740.62384	504.18390	1309.43604	919.56952	307.77130	1355.46533	1042.57129	169.58376	1405.05176	1082.86987	175.30823	1355.42688	956.65845	42.67302	1467.06384	796.70227	1703.08130																																	 
93	0.920	1523.15930	686.64905	1668.42554	1392.47937	693.10040	1654.76062	1531.83484	818.63214	1610.48926	1403.38318	823.27496	1602.22107	1475.04456	818.03076	1452.14636	1466.57715	843.32239	1122.19434	1471.86438	704.90344	1378.26770	1473.93884	661.63293	1203.19666	1392.46887	886.82440	1281.72229	1634.81311	759.42297	1408.92346	1707.32910	782.71539	1209.95374	1717.87292	801.37329	1099.07690	1736.87390	790.37982	948.73425	1687.66956	744.85883	829.77496	1731.77405	802.05579	829.65594	1725.87585	767.96979	744.57513	1312.28992	752.30737	1410.67871	1218.61084	786.96991	1214.69153	1202.28589	775.22021	1093.65588	1181.69324	748.07513	977.13593	1210.30957	672.02307	845.95135	1169.68933	725.44879	841.79541	1166.87085	679.15161	770.91180	1561.02295	649.01282	968.55499	1341.42664	670.51703	971.29706	1545.86145	811.32532	992.22559	1377.87756	820.25751	991.97839	1623.86621	696.34143	656.05603	1602.41016	687.77130	491.83838	1589.92957	691.18884	236.33324	1542.02173	671.40704	67.22630	1493.60779	707.83978	53.65321	1541.95300	525.13861	42.55608	1282.51404	732.32220	631.80127	1293.47180	728.88519	504.11914	1309.56909	909.07654	310.62802	1356.19031	1034.49707	175.24434	1406.02393	1074.48889	182.24953	1355.42041	952.29022	45.87389	1468.79211	791.15381	1702.77795																																	 
94	0.930	1524.69861	680.92853	1668.50098	1393.98181	687.49139	1654.82043	1533.12854	812.40851	1609.94080	1404.95386	817.39435	1601.84106	1476.70569	811.84308	1452.07568	1468.44580	837.16705	1122.02319	1473.36816	698.68298	1378.10901	1475.43274	655.63141	1202.93494	1394.46643	880.87256	1281.49304	1636.40552	752.79706	1408.80432	1709.41663	774.57098	1209.62012	1720.32617	792.16565	1098.60840	1739.38989	779.08606	948.43884	1690.19788	731.87744	830.20819	1734.34631	789.32886	829.41278	1728.59607	753.62042	744.81604	1313.80786	746.29321	1410.22827	1220.42102	781.71460	1214.13770	1203.78833	769.92548	1093.18311	1183.12744	743.03827	976.61377	1211.85144	667.00299	845.32001	1171.15613	720.63794	841.25635	1168.45862	674.31268	770.26147	1562.46277	642.84930	968.29510	1342.71191	664.83704	971.16132	1547.24768	805.32141	992.13110	1379.28979	814.95923	991.58441	1624.45984	691.29889	656.12128	1603.28918	683.55493	491.72516	1590.25793	688.57306	236.28117	1541.83704	670.81415	67.08755	1493.59705	707.54620	53.85836	1541.79199	524.54541	42.31610	1282.67920	722.88037	631.64636	1293.01196	716.91461	504.01611	1309.76599	897.97009	313.46210	1357.02283	1026.10168	181.13118	1406.96924	1065.66882	189.07550	1355.29895	947.14392	49.44906	1470.38745	785.65936	1702.53516																																	 
